# xmcd
#
# Track frame offsets: 
#        150
#        14394
#        29114
#        45900
#        59601
#        75470
#        90736
#        106178
#        121354
#        137278
#        154021
#        169839
#        183339
#        200327
#
# Disc length: 2901 seconds
#
# Revision: 1
# Processed by: cddbd v1.5.2PL0 Copyright (c) Steve Scherf et al.
# Submitted via: ExactAudioCopy v1.0b3
#
DISCID=ad0b530e
DTITLE=Pietro Lombardi - Pietro style
DYEAR=2011
DGENRE=Pop
TTITLE0=Goin' to L. A.
TTITLE1=Baby, feel my body rock
TTITLE2=It cuts like a knife
TTITLE3=When your heart is missing a beat
TTITLE4=Come back and stay with me
TTITLE5=Hey, girl!
TTITLE6=Tonight could be the night
TTITLE7=I was so blind
TTITLE8=Cannot stand the pain
TTITLE9=I promised my heart to you
TTITLE10=I'll never give up
TTITLE11=It's Christmas time
TTITLE12=It feels like heaven
TTITLE13=Call my name [platinum remix]
EXTD=
EXTT0=
EXTT1=
EXTT2=
EXTT3=
EXTT4=
EXTT5=
EXTT6=
EXTT7=
EXTT8=
EXTT9=
EXTT10=
EXTT11=
EXTT12=
EXTT13=
PLAYORDER=
